<svg xmlns="http://www.w3.org/2000/svg" viewBox="0 0 32 32" role="img" aria-label="GAG2 Tools Hub">
  <defs>
    <linearGradient id="bg" x1="0" y1="0" x2="32" y2="32">
      <stop offset="0" stop-color="#16351f"/>
      <stop offset="1" stop-color="#08130d"/>
    </linearGradient>
    <linearGradient id="leaf" x1="8" y1="5" x2="24" y2="25">
      <stop offset="0" stop-color="#9be15d"/>
      <stop offset="1" stop-color="#1f8a45"/>
    </linearGradient>
  </defs>
  <rect width="32" height="32" rx="7" fill="url(#bg)"/>
  <path d="M16 25c-4.4-2.8-6.7-6.1-6.7-9.9 0-3.2 2.2-5.9 5.3-6.8.7-1.8 2.4-3.1 4.7-3.6 1.6 2.4 1.8 4.8.7 7 2.1.9 3.4 2.9 3.4 5.3 0 3.1-2.5 5.8-7.4 8z" fill="url(#leaf)"/>
  <path d="M16 24V10" stroke="#e8f7c5" stroke-width="1.8" stroke-linecap="round"/>
  <path d="M16 15c-2.4-.2-4.1-1.1-5.4-2.7M16.2 18c2.1-.1 3.7-.9 5-2.3" stroke="#e8f7c5" stroke-width="1.4" stroke-linecap="round"/>
</svg>
